<svg xmlns="http://www.w3.org/2000/svg">
    <g class="logo" fill="none">
        <symbol id="header-logo-icon" viewBox="0 0 79 24">
            <path
                d="M4.86 23.7H0V0H5.43C6.54999 0 7.46001 0.0600008 8.16 0.180001C8.88 0.279999 9.44001 0.499998 9.84 0.840001C10.24 1.18 10.51 1.67 10.65 2.31C10.81 2.93 10.89 3.77001 10.89 4.83V7.29C10.89 7.91001 10.82 8.42001 10.68 8.82C10.54 9.21999 10.36 9.54 10.14 9.78C9.93999 10.02 9.72 10.2 9.48 10.32C9.24 10.42 9.02001 10.49 8.82 10.53V10.65C9.12 10.73 9.39 10.85 9.63 11.01C9.89001 11.15 10.11 11.37 10.29 11.67C10.47 11.97 10.61 12.37 10.71 12.87C10.83 13.35 10.89 13.97 10.89 14.73V23.7H6V13.2C6 12.94 5.97 12.77 5.91 12.69C5.85 12.59 5.69001 12.54 5.43 12.54H4.86V23.7ZM4.86 8.73H5.43C5.69001 8.73 5.85 8.69001 5.91 8.61C5.97 8.51001 6 8.33001 6 8.07V4.83C6 4.56999 5.97 4.40001 5.91 4.32C5.85 4.22001 5.69001 4.17 5.43 4.17H4.86V8.73ZM22.2764 20.19C22.2764 21.03 22.2064 21.7 22.0664 22.2C21.9464 22.7 21.7064 23.09 21.3464 23.37C21.0064 23.63 20.5264 23.8 19.9064 23.88C19.3064 23.96 18.5164 24 17.5364 24C16.5764 24 15.7864 23.96 15.1664 23.88C14.5464 23.8 14.0664 23.63 13.7264 23.37C13.3864 23.09 13.1464 22.7 13.0064 22.2C12.8864 21.7 12.8264 21.03 12.8264 20.19V9.24C12.8264 8.4 12.8864 7.73001 13.0064 7.23C13.1464 6.72999 13.3864 6.35001 13.7264 6.09C14.0664 5.81001 14.5464 5.63001 15.1664 5.55C15.7864 5.46999 16.5764 5.43 17.5364 5.43C18.5164 5.43 19.3064 5.46999 19.9064 5.55C20.5264 5.63001 21.0064 5.81001 21.3464 6.09C21.7064 6.35001 21.9464 6.72999 22.0664 7.23C22.2064 7.73001 22.2764 8.4 22.2764 9.24V20.19ZM16.9964 19.35C16.9964 19.61 17.0264 19.79 17.0864 19.89C17.1464 19.97 17.2964 20.01 17.5364 20.01C17.7964 20.01 17.9564 19.97 18.0164 19.89C18.0764 19.79 18.1064 19.61 18.1064 19.35V10.08C18.1064 9.81999 18.0764 9.65001 18.0164 9.57C17.9564 9.47001 17.7964 9.42 17.5364 9.42C17.2964 9.42 17.1464 9.47001 17.0864 9.57C17.0264 9.65001 16.9964 9.81999 16.9964 10.08V19.35ZM28.7236 0V6.54C28.9836 6.18 29.3036 5.93001 29.6836 5.79C30.0836 5.64999 30.5736 5.58 31.1536 5.58C31.7336 5.58 32.2036 5.64999 32.5636 5.79C32.9236 5.91 33.1936 6.11001 33.3736 6.39C33.5736 6.66999 33.7036 7.05 33.7636 7.53C33.8436 7.98999 33.8836 8.55999 33.8836 9.24V20.19C33.8836 20.89 33.8436 21.48 33.7636 21.96C33.7036 22.42 33.5736 22.79 33.3736 23.07C33.1736 23.35 32.8836 23.55 32.5036 23.67C32.1236 23.79 31.6336 23.85 31.0336 23.85C30.3536 23.85 29.8036 23.78 29.3836 23.64C28.9636 23.48 28.6436 23.23 28.4236 22.89V23.7H24.4336V0H28.7236ZM29.7136 10.08C29.7136 9.84 29.6836 9.66999 29.6236 9.57C29.5836 9.47001 29.4536 9.42 29.2336 9.42C29.0336 9.42 28.8836 9.45999 28.7836 9.54C28.7036 9.6 28.6436 9.69999 28.6036 9.84V19.59C28.6436 19.73 28.7036 19.84 28.7836 19.92C28.8836 19.98 29.0336 20.01 29.2336 20.01C29.4536 20.01 29.5836 19.96 29.6236 19.86C29.6836 19.76 29.7136 19.59 29.7136 19.35V10.08ZM40.3551 3.12H36.0952V0H40.3551V3.12ZM40.3551 23.7H36.0952V5.73H40.3551V23.7ZM52.5529 23.7H48.2329V10.08C48.2329 9.84 48.2029 9.66999 48.1429 9.57C48.1026 9.47001 47.9728 9.42 47.7529 9.42C47.5528 9.42 47.4028 9.45999 47.3029 9.54C47.2228 9.6 47.1529 9.69999 47.0929 9.84V23.7H42.8029V5.73H46.7929V6.54C47.0128 6.20001 47.3329 5.96001 47.7529 5.82C48.1729 5.66001 48.7228 5.58 49.4029 5.58C50.0029 5.58 50.5026 5.64 50.9029 5.76C51.3229 5.88 51.6529 6.08001 51.8929 6.36C52.1329 6.63999 52.3026 7.02 52.4029 7.5C52.5028 7.95999 52.5529 8.54001 52.5529 9.24V23.7ZM59.194 23.7H54.844V19.47H59.194V23.7ZM78.4295 0L75.9695 23.7H69.8495L69.0395 6.51H68.9195L67.9295 23.7H61.7195L59.8895 0H64.7795L65.2895 16.62H65.4095L66.1295 0H72.1295L72.6395 16.62H72.7595L73.5095 0H78.4295Z"
            />
        </symbol>
        <symbol id="footer-logo-icon" viewBox="0 0 131 40">
            <path
                d="M8.1 39.5H0V0H9.05C10.9166 0 12.4334 0.100001 13.6 0.300001C14.8 0.466666 15.7334 0.83333 16.4 1.4C17.0666 1.96667 17.5166 2.78333 17.75 3.85C18.0166 4.88333 18.15 6.28336 18.15 8.05V12.15C18.15 13.1834 18.0334 14.0334 17.8 14.7C17.5666 15.3666 17.2666 15.9 16.9 16.3C16.5666 16.7 16.2 17 15.8 17.2C15.4 17.3666 15.0334 17.4834 14.7 17.55V17.75C15.2 17.8834 15.65 18.0834 16.05 18.35C16.4834 18.5834 16.85 18.95 17.15 19.45C17.45 19.95 17.6834 20.6166 17.85 21.45C18.05 22.25 18.15 23.2834 18.15 24.55V39.5H10V22C10 21.5666 9.95 21.2834 9.85 21.15C9.75 20.9834 9.48336 20.9 9.05 20.9H8.1V39.5ZM8.1 14.55H9.05C9.48336 14.55 9.75 14.4834 9.85 14.35C9.95 14.1834 10 13.8834 10 13.45V8.05C10 7.61665 9.95 7.33336 9.85 7.2C9.75 7.03336 9.48336 6.95 9.05 6.95H8.1V14.55ZM37.1274 33.65C37.1274 35.05 37.0107 36.1666 36.7774 37C36.5774 37.8334 36.1774 38.4834 35.5774 38.95C35.0107 39.3834 34.2107 39.6666 33.1774 39.8C32.1774 39.9334 30.8607 40 29.2274 40C27.6274 40 26.3107 39.9334 25.2774 39.8C24.244 39.6666 23.444 39.3834 22.8774 38.95C22.3107 38.4834 21.9107 37.8334 21.6774 37C21.4774 36.1666 21.3774 35.05 21.3774 33.65V15.4C21.3774 14 21.4774 12.8834 21.6774 12.05C21.9107 11.2166 22.3107 10.5834 22.8774 10.15C23.444 9.68336 24.244 9.38336 25.2774 9.25C26.3107 9.11665 27.6274 9.05 29.2274 9.05C30.8607 9.05 32.1774 9.11665 33.1774 9.25C34.2107 9.38336 35.0107 9.68336 35.5774 10.15C36.1774 10.5834 36.5774 11.2166 36.7774 12.05C37.0107 12.8834 37.1274 14 37.1274 15.4V33.65ZM28.3274 32.25C28.3274 32.6834 28.3774 32.9834 28.4774 33.15C28.5774 33.2834 28.8274 33.35 29.2274 33.35C29.6607 33.35 29.9274 33.2834 30.0274 33.15C30.1274 32.9834 30.1774 32.6834 30.1774 32.25V16.8C30.1774 16.3666 30.1274 16.0834 30.0274 15.95C29.9274 15.7834 29.6607 15.7 29.2274 15.7C28.8274 15.7 28.5774 15.7834 28.4774 15.95C28.3774 16.0834 28.3274 16.3666 28.3274 16.8V32.25ZM47.8726 0V10.9C48.306 10.3 48.8393 9.88336 49.4726 9.65C50.1393 9.41665 50.956 9.3 51.9226 9.3C52.8893 9.3 53.6726 9.41665 54.2726 9.65C54.8726 9.85 55.3226 10.1834 55.6226 10.65C55.956 11.1166 56.1726 11.75 56.2726 12.55C56.406 13.3166 56.4726 14.2666 56.4726 15.4V33.65C56.4726 34.8166 56.406 35.8 56.2726 36.6C56.1726 37.3666 55.956 37.9834 55.6226 38.45C55.2893 38.9166 54.806 39.25 54.1726 39.45C53.5393 39.65 52.7226 39.75 51.7226 39.75C50.5893 39.75 49.6726 39.6334 48.9726 39.4C48.2726 39.1334 47.7393 38.7166 47.3726 38.15V39.5H40.7226V0H47.8726ZM49.5226 16.8C49.5226 16.4 49.4726 16.1166 49.3726 15.95C49.306 15.7834 49.0893 15.7 48.7226 15.7C48.3893 15.7 48.1393 15.7666 47.9726 15.9C47.8393 16 47.7393 16.1666 47.6726 16.4V32.65C47.7393 32.8834 47.8393 33.0666 47.9726 33.2C48.1393 33.3 48.3893 33.35 48.7226 33.35C49.0893 33.35 49.306 33.2666 49.3726 33.1C49.4726 32.9334 49.5226 32.65 49.5226 32.25V16.8ZM67.2586 5.2H60.1586V0H67.2586V5.2ZM67.2586 39.5H60.1586V9.55H67.2586V39.5ZM87.5882 39.5H80.3882V16.8C80.3882 16.4 80.3382 16.1166 80.2382 15.95C80.1711 15.7834 79.9546 15.7 79.5882 15.7C79.2546 15.7 79.0046 15.7666 78.8382 15.9C78.7046 16 78.5882 16.1666 78.4882 16.4V39.5H71.3382V9.55H77.9882V10.9C78.3546 10.3334 78.8882 9.93336 79.5882 9.7C80.2882 9.43336 81.2046 9.3 82.3382 9.3C83.3382 9.3 84.1711 9.4 84.8382 9.6C85.5382 9.8 86.0882 10.1334 86.4882 10.6C86.8882 11.0666 87.1711 11.7 87.3382 12.5C87.5046 13.2666 87.5882 14.2334 87.5882 15.4V39.5ZM98.6566 39.5H91.4066V32.45H98.6566V39.5ZM130.716 0L126.616 39.5H116.416L115.066 10.85H114.866L113.216 39.5H102.866L99.8158 0H107.966L108.816 27.7H109.016L110.216 0H120.216L121.066 27.7H121.266L122.516 0H130.716Z"
            />
        </symbol>
    </g>
    <g class="skillset" viewBox="0 0 32 32" fill="none">
        <symbol id="product">
            <path fill-rule="evenodd" clip-rule="evenodd"
                d="M30.2222 23.1111H17.7778V30.2222H30.2222V23.1111ZM30.2222 1.77778H17.7778V16H30.2222V1.77778ZM10.6667 16H1.77778V30.2222H10.6667V16ZM10.6667 1.77778H1.77778V8.88889H10.6667V1.77778ZM17.7778 0C16.7959 0 16 0.795947 16 1.77778V16C16 16.9819 16.7959 17.7778 17.7778 17.7778H30.2222C31.2041 17.7778 32 16.9819 32 16V1.77778C32 0.795947 31.2041 0 30.2222 0H17.7778ZM17.7778 21.3333C16.7959 21.3333 16 22.1292 16 23.1111V30.2222C16 31.2041 16.7959 32 17.7778 32H30.2222C31.2041 32 32 31.2041 32 30.2222V23.1111C32 22.1292 31.2041 21.3333 30.2222 21.3333H17.7778ZM0 16C0 15.0182 0.795947 14.2222 1.77778 14.2222H10.6667C11.6485 14.2222 12.4444 15.0182 12.4444 16V30.2222C12.4444 31.2041 11.6485 32 10.6667 32H1.77778C0.795947 32 0 31.2041 0 30.2222V16ZM1.77778 0C0.795947 0 0 0.795947 0 1.77778V8.88889C0 9.87072 0.795947 10.6667 1.77778 10.6667H10.6667C11.6485 10.6667 12.4444 9.87072 12.4444 8.88889V1.77778C12.4444 0.795947 11.6485 0 10.6667 0H1.77778Z"
                fill="#5221E6" />
        </symbol>
        <symbol id="visual">
            <path d="M17.2211 1.20013L30.799 14.778L31.9993 13.5779L18.4214 0L17.2211 1.20013Z"
                fill="#5221E6" />
            <path fill-rule="evenodd" clip-rule="evenodd"
                d="M19.2336 7.60133C18.4975 6.86522 17.3874 6.65144 16.4305 7.06151L7.00714 11.1001C5.8941 11.5771 5.03594 12.5059 4.65549 13.6597C3.76246 16.3682 2.60708 19.9468 1.67428 23.0059C1.20815 24.5346 0.795621 25.9401 0.498919 27.0447C0.35075 27.5963 0.229365 28.0807 0.144391 28.4716C0.0652554 28.8358 0 29.1944 0 29.4529V29.8044L2.19436 31.9988H2.54586C2.80447 31.9988 3.16311 31.9336 3.52722 31.8545C3.91819 31.7695 4.40255 31.6481 4.95417 31.4999C6.05877 31.2033 7.46417 30.7907 8.99285 30.3246C12.052 29.3918 15.6306 28.2363 18.3392 27.3434C19.493 26.9629 20.4217 26.1048 20.8988 24.9917L24.9374 15.5683C25.3474 14.6115 25.1336 13.5013 24.3975 12.7652L19.2336 7.60133ZM17.0992 8.62152C17.4181 8.48483 17.7881 8.5561 18.0335 8.80147L23.1973 13.9654C23.4428 14.2107 23.5141 14.5808 23.3773 14.8997L19.3387 24.3232C19.0518 24.9924 18.4955 25.5046 17.8076 25.7314C15.1052 26.6224 11.5399 27.7735 8.49784 28.701C6.97594 29.1652 5.59147 29.5714 4.51389 29.8608C3.97444 30.0057 3.51965 30.1192 3.16676 30.196C3.09215 30.2121 3.02327 30.2265 2.9601 30.2389L11.6316 21.5674C12.5779 22.0195 13.7457 21.8535 14.5295 21.0697C15.5237 20.0755 15.5237 18.4636 14.5295 17.4694C13.5353 16.4751 11.9233 16.4751 10.9291 17.4694C10.1453 18.2532 9.97941 19.421 10.4315 20.3672L1.7599 29.0388C1.77238 28.9756 1.78668 28.9067 1.80291 28.8321C1.87961 28.4792 1.99315 28.0243 2.13806 27.485C2.42749 26.4074 2.83366 25.0229 3.29772 23.501C4.22533 20.4589 5.37634 16.8935 6.26738 14.1912C6.49416 13.5034 7.00635 12.947 7.67571 12.6601L17.0992 8.62152Z"
                fill="#5221E6" />
        </symbol>
        <symbol id="motion">
            <circle cx="16" cy="16" r="15" stroke="#5221E6" stroke-width="2"
                stroke-dasharray="10 10" />
            <path d="M21 16L13.5 20.3301L13.5 11.6699L21 16Z" fill="#5221E6" />
        </symbol>
        <symbol id="photography">
            <path
                d="M29.8276 5.2356H26.8998L26.2272 2.20139C25.9399 0.905253 24.8106 0 23.4808 0H13.3164C11.9867 0 10.8573 0.90519 10.57 2.20133L9.89738 5.2356H9.20263V3.94096C9.20263 3.2114 8.608 2.6178 7.87712 2.6178H3.59138C2.8605 2.6178 2.26588 3.2114 2.26588 3.94096V5.2356H2.17231C0.9745 5.2356 0 6.20843 0 7.40424V22.0919C0 23.2877 0.9745 24.2605 2.17237 24.2605H4.39406H12.2471C14.0205 25.4073 16.1329 26.0741 18.3986 26.0741C20.6643 26.0741 22.7767 25.4073 24.55 24.2605H29.8276C31.0255 24.2605 32 23.2877 32 22.0919V7.40424C32 6.20843 31.0255 5.2356 29.8276 5.2356ZM11.7904 2.47093C11.9501 1.7508 12.5776 1.24779 13.3164 1.24779H23.4807C24.2196 1.24779 24.8471 1.75073 25.0067 2.47093L25.6196 5.2356H24.55C22.7766 4.08883 20.6643 3.42204 18.3986 3.42204C16.1329 3.42204 14.0205 4.08883 12.2471 5.2356H11.1775L11.7904 2.47093ZM3.51588 3.94096C3.51588 3.89941 3.54975 3.86565 3.59138 3.86565H7.87706C7.91869 3.86565 7.95256 3.89947 7.95256 3.94096V5.2356H3.51588V3.94096ZM5.01906 23.0126V16.2357C5.01906 15.8911 4.73925 15.6118 4.39406 15.6118C4.04887 15.6118 3.76906 15.8911 3.76906 16.2357V23.0127H2.17237C1.66381 23.0127 1.25 22.5996 1.25 22.0919V7.40424C1.25 6.89649 1.66381 6.48345 2.17237 6.48345H2.89094H8.57756H10.3991H10.6496C8.43769 8.55152 7.053 11.4912 7.053 14.748C7.053 18.0049 8.43769 20.9445 10.6496 23.0126H5.01906ZM24.1692 23.0127C23.4242 23.5326 22.606 23.9547 21.7333 24.2605C20.6888 24.6265 19.5667 24.8262 18.3986 24.8262C17.2304 24.8262 16.1082 24.6264 15.0638 24.2605C14.1911 23.9547 13.373 23.5326 12.6279 23.0127C10.0154 21.1892 8.303 18.1648 8.303 14.7481C8.303 11.3314 10.0154 8.30694 12.6279 6.48352C13.3729 5.96354 14.1911 5.54145 15.0638 5.23567C16.1083 4.86967 17.2304 4.66995 18.3986 4.66995C19.5667 4.66995 20.6889 4.86973 21.7333 5.23567C22.606 5.54145 23.4241 5.96354 24.1692 6.48352C26.7817 8.30694 28.4941 11.3314 28.4941 14.7481C28.4941 18.1648 26.7817 21.1892 24.1692 23.0127ZM30.75 22.0918C30.75 22.5996 30.3363 23.0126 29.8276 23.0126H26.1475C28.3594 20.9445 29.7441 18.0049 29.7441 14.748C29.7441 11.4912 28.3594 8.55152 26.1475 6.48345H26.398H29.8276C30.3363 6.48345 30.75 6.89649 30.75 7.40424V22.0918Z"
                fill="#5221E6" />
            <path
                d="M18.3704 7.11108C14.1225 7.11108 10.6667 10.5669 10.6667 14.8148C10.6667 19.0626 14.1225 22.5185 18.3704 22.5185C18.9893 22.5185 19.6054 22.4448 20.2014 22.2994C20.5163 22.2226 20.7092 21.9052 20.6325 21.5904C20.5557 21.2755 20.2382 21.0825 19.9234 21.1594C19.4182 21.2826 18.8957 21.345 18.3704 21.345C14.7696 21.345 11.8402 18.4156 11.8402 14.8149C11.8402 11.2141 14.7696 8.28469 18.3704 8.28469C21.9711 8.28469 24.9005 11.2141 24.9005 14.8149C24.9005 16.1272 24.513 17.3926 23.7797 18.4742C23.5979 18.7424 23.668 19.1074 23.9362 19.2892C24.2042 19.471 24.5692 19.401 24.7511 19.1328C25.6166 17.8561 26.0741 16.363 26.0741 14.8149C26.0741 10.5669 22.6182 7.11108 18.3704 7.11108Z"
                fill="#5221E6" />
            <path
                d="M4.74075 8.29639C3.43369 8.29639 2.37038 9.35976 2.37038 10.6668C2.37038 11.9738 3.43375 13.0371 4.74075 13.0371C6.04774 13.0371 7.11112 11.9738 7.11112 10.6668C7.11112 9.35976 6.04774 8.29639 4.74075 8.29639ZM4.74075 11.764C4.13579 11.764 3.64357 11.2718 3.64357 10.6668C3.64357 10.0619 4.13579 9.56965 4.74075 9.56965C5.34571 9.56965 5.83792 10.0619 5.83792 10.6668C5.83792 11.2718 5.34577 11.764 4.74075 11.764Z"
                fill="#5221E6" />
            <path
                d="M23.6924 20.6248C23.6847 20.5875 23.6734 20.5502 23.6586 20.514C23.6438 20.4785 23.6254 20.4441 23.6041 20.4121C23.5828 20.3795 23.5579 20.3493 23.5306 20.3221C23.5033 20.2948 23.4726 20.2699 23.4405 20.248C23.4079 20.2267 23.3736 20.2083 23.338 20.1935C23.3024 20.1787 23.2652 20.1674 23.2272 20.1597C23.1508 20.1443 23.072 20.1443 22.9955 20.1597C22.9575 20.1674 22.9202 20.1787 22.8847 20.1935C22.8491 20.2083 22.8148 20.2267 22.7822 20.248C22.7502 20.2699 22.72 20.2948 22.6921 20.3221C22.6648 20.3493 22.64 20.3795 22.6186 20.4121C22.5973 20.4441 22.5789 20.4785 22.5641 20.514C22.5493 20.5502 22.538 20.5875 22.5303 20.6248C22.5226 20.6633 22.5185 20.7024 22.5185 20.7409C22.5185 20.7794 22.5226 20.8185 22.5303 20.8565C22.538 20.8944 22.5493 20.9317 22.5641 20.9672C22.5789 21.0034 22.5973 21.0377 22.6186 21.0697C22.64 21.1023 22.6648 21.1325 22.6921 21.1598C22.72 21.187 22.7501 21.2119 22.7822 21.2333C22.8148 21.2546 22.8491 21.2729 22.8847 21.2878C22.9203 21.3026 22.9575 21.3138 22.9955 21.3215C23.034 21.3292 23.0726 21.3334 23.1111 21.3334C23.1501 21.3334 23.1887 21.3292 23.2272 21.3215C23.2652 21.3138 23.3025 21.3026 23.338 21.2878C23.3736 21.2729 23.408 21.2546 23.4405 21.2333C23.4725 21.2119 23.5033 21.187 23.5306 21.1598C23.6408 21.0496 23.7037 20.8967 23.7037 20.7409C23.7037 20.7024 23.7001 20.6633 23.6924 20.6248Z"
                fill="#5221E6" />
        </symbol>
    </g>
    <g class="partners" viewBox="0 0 85 30">
        <symbol id="cbre">
            <path
                d="M38.6427 10.1573C41.3291 9.27056 41.8166 7.02924 41.8101 5.20268C41.8049 2.41422 39.8245 0.00179789 33.9617 0.00179789L23.0195 0V20.9568H33.9336C39.8311 20.9568 42.0012 17.9471 42.0012 14.9324C42.0012 11.2819 38.6427 10.1573 38.6427 10.1573ZM28.2124 4.55929H35.5794L35.6061 4.56468C36.4377 4.71111 37.0431 5.41398 37.0431 6.2386C37.0431 7.08235 36.3944 7.87657 35.5372 7.99293L28.2174 8.00388L28.2124 4.55929ZM35.225 16.0728H28.2124V12.5641H35.3968L35.4137 12.5659C36.3075 12.6684 36.9845 13.4069 36.9845 14.2846C36.9845 15.241 36.1832 16.0581 35.225 16.0728Z"
            />
            <path
                d="M66.5039 0.00268555H84.995L84.9848 4.57668H71.6416L71.6544 7.9546H83.6837V12.5521H71.6544V16.2073H84.9994L84.9968 21H66.5039V0.00268555Z"
            />
            <path
                d="M55.7485 0.0302734H44.5664V20.9938H49.7013V12.5121C49.7013 12.5121 55.3554 12.5057 55.3564 12.5057C56.9759 12.5304 58.2354 13.8492 58.2354 15.4754V20.9755L63.2616 20.9737L63.2515 14.2077C63.2515 11.0735 60.2056 10.1474 60.2056 10.1474C60.2056 10.1474 63.3197 9.22108 63.3197 5.51567C63.3197 0.98204 59.4002 0.0302734 55.7485 0.0302734ZM58.5513 6.53427C58.4591 7.22342 57.7659 7.97107 56.9004 7.97107L49.6837 7.97385V4.61702H56.904C57.7659 4.61702 58.4418 5.24847 58.5513 6.07686V6.53427Z"
            />
            <path
                d="M19.6896 15.928C19.6157 15.9299 12.6706 16.0634 10.273 15.8309C6.41091 15.4549 5.0433 12.6115 5.0433 10.2906C5.0433 7.39692 7.0278 5.26738 10.1022 4.86749C11.5647 4.6771 19.5627 4.76682 19.6472 4.76764L19.8154 4.7696L19.8324 0.00244141L19.6625 0.0034214L10.6104 0.0199266C9.60272 0.0812096 7.93192 0.181878 6.22101 0.877398C4.57751 1.62586 3.14709 2.77553 2.07904 4.20596C0.719648 6.02696 0 8.18772 0 10.4543C0 11.1673 0.0567228 11.8748 0.172636 12.5538C0.824052 15.7322 2.92019 18.3623 5.92588 19.7772C6.94082 20.221 8.50606 20.7536 11.6628 20.9293C11.6693 20.9293 13.3634 20.9649 13.3634 20.9649L19.674 20.9713H19.8407L19.8585 15.926L19.6896 15.928Z"
            />
        </symbol>
        <symbol id="epiq">
            <path
                d="M26.5125 14.0984C25.1276 18.3121 21.7406 20.6866 17.1606 20.6866C11.4645 20.6866 7 16.1672 7 10.3819C7 4.6741 11.4645 0.000279685 16.9681 0.000279685C22.0865 0.000279685 27.0132 4.21458 26.9747 11.2246H10.31C10.7331 15.3242 13.8891 17.7376 17.1606 17.7376C19.9701 17.7376 21.971 16.3968 23.0491 14.0984H26.5125ZM23.3571 8.31336C22.5487 5.09503 19.8547 2.95012 16.9681 2.95012C14.2359 2.95012 11.3493 4.9426 10.5027 8.31336H23.3571ZM38.4818 20.6869C35.6338 20.6869 33.1704 19.1548 31.7467 17.2395V29H28.4752V0.498399H31.6312V3.63926C33.017 1.64791 35.5565 0 38.4818 0C44.1773 0 48.3727 4.6355 48.3727 10.3056C48.3727 16.0523 44.1773 20.6869 38.4818 20.6869ZM38.4818 2.98872C34.8254 2.98872 31.7467 6.28341 31.7467 10.3056C31.7467 14.3658 34.8254 17.699 38.4818 17.699C42.1762 17.699 45.1012 14.3658 45.1012 10.3056C45.1012 6.28341 42.1762 2.98872 38.4818 2.98872ZM49.7967 0.498399H53.0684V20.2274H49.7967V0.498399ZM54.529 10.3937C54.529 4.63662 59.2236 0.00587339 65.1675 0.00587339C71.112 0.00587339 75.8072 4.63662 75.8072 10.3937C75.8072 16.1507 71.0687 20.6973 65.1675 20.6973C59.2672 20.6973 54.529 16.1507 54.529 10.3937ZM66.0656 3.14898C60.6502 2.67771 57.6381 6.78153 57.6381 11.5627C57.6381 16.3428 61.5968 20.2196 66.4778 20.2196C68.3051 20.2229 70.0894 19.6668 71.5885 18.6268L70.3629 15.5214C71.629 14.2086 72.3607 12.3937 72.3607 10.3897C72.3607 6.42717 69.5812 3.47817 66.0656 3.14898Z"
            />
            <path d="M62.2136 12.3765L71.8648 20.1926H77L67.5978 12.3765"
            />
        </symbol>
        <symbol id="third">
            <path
                d="M55.7755 1H29.3338C29.2554 0.999999 29.1796 1.02756 29.1195 1.07787C29.0594 1.12817 29.019 1.198 29.0052 1.27514C28.9914 1.35227 29.0052 1.43179 29.0442 1.49976C29.0832 1.56774 29.1448 1.61984 29.2183 1.64694L53.1344 9.47706C53.1618 9.48601 53.1914 9.48507 53.2181 9.47439C53.2449 9.46372 53.267 9.44399 53.2806 9.41866L56.8493 2.79879C56.9495 2.61296 56.9997 2.4043 56.9951 2.19323C56.9905 1.98216 56.9312 1.77591 56.823 1.59462C56.7148 1.41335 56.5613 1.26325 56.3778 1.15902C56.1942 1.0548 55.9866 1 55.7755 1Z"
            />
            <path
                d="M29.0059 28.6785C29.0059 28.7504 29.0299 28.8202 29.074 28.877C29.1182 28.9337 29.1801 28.9741 29.2498 28.9917C29.3195 29.0093 29.3931 29.0032 29.459 28.9742C29.5248 28.9453 29.5791 28.8952 29.6133 28.8319L34.2136 20.3098C34.3181 20.1162 34.4731 19.9544 34.6621 19.8417C34.851 19.729 35.067 19.6694 35.2871 19.6694H47.024C47.2441 19.6694 47.4602 19.6099 47.6492 19.497C47.8383 19.3842 47.9932 19.2223 48.0977 19.0285L51.6047 12.5258C51.6126 12.511 51.6166 12.4944 51.6163 12.4776C51.6159 12.4608 51.6112 12.4444 51.6026 12.4299C51.594 12.4155 51.5818 12.4036 51.5672 12.3953C51.5526 12.387 51.536 12.3826 51.5192 12.3826H30.2257C29.9022 12.3826 29.5919 12.5112 29.3632 12.7399C29.1344 12.9687 29.0059 13.279 29.0059 13.6025V28.6785Z"
            />
        </symbol>
        <symbol id="fresh">
            <path fill-rule="evenodd" clip-rule="evenodd"
                d="M52.4878 5H43.1489C37.5442 5 33 8.90291 33 14.5075V21.0964C37.0911 12.7332 47.035 6.85662 52.4878 5Z"
            />
            <path
                d="M34.0005 25.9999H42.2772C47.8824 25.9999 52.426 21.4561 52.426 15.8512V5.48511C43.7854 10.2827 37.8727 17.751 34.0005 25.9999Z"
            />
        </symbol>
    </g>
    <g class="socials" viewBox="0 0 24 24">
        <symbol id="twitter" >
            <path fill-rule="evenodd" clip-rule="evenodd"
                d="M22 6.87195C21.3103 7.16751 20.5222 7.36453 19.6355 7.46305C20.4236 6.97044 21.1133 6.18225 21.4089 5.29555C20.6207 5.78816 19.734 6.08373 18.8473 6.28078C18.1576 5.4926 17.0739 5 15.8916 5C13.6256 5 11.8522 6.7734 11.8522 8.94089C11.8522 9.23645 11.8522 9.53204 11.9507 9.82761C8.60099 9.63057 5.64532 8.0542 3.57636 5.68967C3.18227 6.2808 2.98522 6.97046 2.98522 7.66011C2.98522 9.03942 3.67488 10.2217 4.75862 11.0098C4.06896 11.0098 3.47783 10.8128 2.88669 10.5172C2.88669 10.5172 2.88669 10.5173 2.88669 10.6158C2.88669 12.5862 4.26601 14.1626 6.13793 14.5567C5.84236 14.6552 5.44828 14.6552 5.05419 14.6552C4.75862 14.6552 4.56158 14.6552 4.26601 14.5567C4.75862 16.133 6.23645 17.3153 8.00985 17.3153C6.63054 18.399 4.85715 18.9902 2.98522 18.9902C2.68966 18.9902 2.29557 18.9901 2 18.8916C3.7734 20.0739 5.94089 20.665 8.2069 20.665C15.5961 20.665 19.734 14.5567 19.734 9.335C19.734 9.13796 19.734 8.94091 19.734 8.84239C20.8177 8.34978 21.5074 7.66012 22 6.87195Z"
            />
        </symbol>
        <symbol id="dribbble">
            <path fill-rule="evenodd" clip-rule="evenodd"
                d="M12 22C6.48597 22 2 17.514 2 12C2 6.48597 6.48597 2 12 2C17.514 2 22 6.48597 22 12C22 17.514 17.514 22 12 22ZM20.4335 13.3689C20.1413 13.2766 17.7897 12.5753 15.113 13.0037C16.2302 16.0737 16.6848 18.5743 16.7723 19.0937C18.6887 17.798 20.0528 15.7455 20.4335 13.3689ZM15.3365 19.8757C15.2094 19.1263 14.7135 16.5146 13.5143 13.3984C13.4955 13.4048 13.4768 13.4109 13.458 13.4174C8.64026 15.0962 6.9108 18.4372 6.75715 18.7515C7.95695 19.687 9.38515 20.2846 10.8937 20.4823C12.4022 20.6799 13.9361 20.4705 15.3365 19.8757ZM5.65429 17.7242C5.84776 17.393 8.19196 13.5116 12.5972 12.0876C12.7085 12.0516 12.8207 12.0178 12.9337 11.9861C12.7193 11.5009 12.4858 11.0151 12.2413 10.5365C7.9757 11.8131 3.83652 11.7598 3.4628 11.7521C3.4602 11.8388 3.45845 11.9257 3.45845 12.0131C3.45681 14.1232 4.23941 16.1587 5.65429 17.7242ZM3.63888 10.2636C4.0209 10.2686 7.5401 10.2839 11.5354 9.22292C10.1202 6.70717 8.59377 4.59187 8.36861 4.28305C5.97904 5.41019 4.19273 7.61308 3.63888 10.2636ZM9.99837 3.70893C10.2345 4.02504 11.7858 6.13764 13.1855 8.70917C16.2227 7.57076 17.5086 5.84255 17.6622 5.62374C16.6338 4.7104 15.3997 4.05927 14.0653 3.72586C12.7308 3.39245 11.3356 3.38665 9.99837 3.70893ZM18.6117 6.61154C18.4316 6.85523 17.0004 8.69 13.8422 9.97938C14.0409 10.3863 14.2315 10.8001 14.4089 11.2166C14.4717 11.3642 14.5331 11.5111 14.5929 11.6574C17.435 11.3 20.2589 11.8728 20.5405 11.9323C20.5242 9.99048 19.8435 8.11277 18.6117 6.61154Z"
            />
        </symbol>
        <symbol id="linkedin">
            <path
                d="M19.65 3H4.35C3.63 3 3 3.54268 3 4.2663V19.7337C3 20.4573 3.63 21 4.35 21H19.65C20.37 21 21 20.4573 21 19.7337V4.2663C21 3.63313 20.37 3 19.65 3ZM8.31 18.4673H5.61V9.87435H8.31V18.4673ZM6.96 8.608C6.06 8.608 5.43 7.88442 5.43 7.07035C5.43 6.25628 6.15 5.53265 6.96 5.53265C7.77 5.53265 8.49 6.25628 8.49 7.07035C8.58 7.97488 7.86 8.608 6.96 8.608ZM18.3 18.4673H15.6V14.3066C15.6 13.3116 15.6 12.0452 14.25 12.0452C12.9 12.0452 12.63 13.1307 12.63 14.3066V18.5578H9.93001V9.96478H12.45V11.1407C12.81 10.4171 13.71 9.78392 14.97 9.78392C17.67 9.78392 18.21 11.593 18.21 13.8543V18.4673H18.3Z"
            />
        </symbol>
    </g>
</svg>